# xmcd
#
# Track frame offsets:
#	150
#	14840
#	29100
#	41864
#	54676
#	75888
#	90796
#	103946
#	119246
#	133176
#	153744
#	169156
#	185152
#	197434
#	220588
#
# Disc length: 3161 seconds
# Revision: 0
# Processed by: cddbd v1.5.2PL0 Copyright (c) Steve Scherf et al.
# Submitted via: dBpowerAMP V12.0
#
DISCID=db0c570f
DTITLE=Lou Rawls - Portrait of the Blues [Blue Note] (t)
DYEAR=1993
DGENRE=Vocal
TTITLE0=I Just Want To Make Love To You (with Jr Wells)
TTITLE1=A Lover's Question (with Pheobe Snow)
TTITLE2=Person To Person
TTITLE3=Since I Met You Baby
TTITLE4=I'm Still In Love With You
TTITLE5=Snap Your Fingers
TTITLE6=Baby What You Want Me To Do
TTITLE7=Suffering With The Blues
TTITLE8=Hide Nor Hair
TTITLE9=Chains Of Love
TTITLE10=My Babe
TTITLE11=I Ain't Got Nothin' But The Blues
TTITLE12=Save Your Love For Me
TTITLE13=Saturday Night Fish Fry
TTITLE14=Sweet Slumber
EXTD=
EXTT0=
EXTT1=
EXTT2=
EXTT3=
EXTT4=
EXTT5=
EXTT6=
EXTT7=
EXTT8=
EXTT9=
EXTT10=
EXTT11=
EXTT12=
EXTT13=
EXTT14=
PLAYORDER=
